<svg xmlns="http://www.w3.org/2000/svg" xmlns:xlink="http://www.w3.org/1999/xlink" width="500" zoomAndPan="magnify" viewBox="0 0 375 374.999991" height="500" preserveAspectRatio="xMidYMid meet" version="1.0"><defs><g/></defs><rect x="-37.5" width="450" fill="#ffffff" y="-37.499999" height="449.999989" fill-opacity="1"/><rect x="-37.5" width="450" fill="#62b0f5" y="-37.499999" height="449.999989" fill-opacity="1"/><path fill="#ffffff" d="M 267.109375 143.429688 C 267.109375 156.078125 256.859375 166.332031 244.210938 166.332031 C 237.027344 166.332031 230.617188 163.023438 226.421875 157.847656 C 223.59375 167.285156 214.84375 174.160156 204.484375 174.160156 C 195.976562 174.160156 188.546875 169.515625 184.601562 162.621094 C 180.652344 169.515625 173.226562 174.160156 164.714844 174.160156 C 154.355469 174.160156 145.605469 167.285156 142.777344 157.847656 C 138.582031 163.023438 132.171875 166.332031 124.988281 166.332031 C 112.339844 166.332031 102.089844 156.078125 102.089844 143.429688 C 102.089844 130.921875 112.121094 120.75 124.582031 120.535156 C 122.859375 117.320312 121.886719 113.644531 121.886719 109.742188 C 121.886719 97.09375 132.136719 86.84375 144.785156 86.84375 C 151.792969 86.84375 158.070312 89.992188 162.265625 94.953125 C 164.582031 84.753906 173.703125 77.144531 184.597656 77.144531 C 195.5 77.144531 204.621094 84.757812 206.929688 94.957031 C 211.128906 89.992188 217.40625 86.84375 224.414062 86.84375 C 237.0625 86.84375 247.316406 97.09375 247.316406 109.742188 C 247.316406 113.644531 246.339844 117.320312 244.617188 120.535156 C 257.078125 120.75 267.109375 130.921875 267.109375 143.429688 Z M 267.109375 143.429688 " fill-opacity="1" fill-rule="nonzero"/><g fill="#000000" fill-opacity="1"><g transform="translate(110.909851, 227.707999)"><g><path d="M 17.390625 0.625 C 15.367188 0.625 13.570312 0.328125 12 -0.265625 C 10.425781 -0.859375 9.28125 -1.691406 8.5625 -2.765625 C 7.488281 -4.304688 6.6875 -6.921875 6.15625 -10.609375 C 5.625 -14.304688 5.359375 -18.207031 5.359375 -22.3125 C 5.359375 -26.40625 5.59375 -29.492188 6.0625 -31.578125 C 7.019531 -35.441406 9.847656 -37.375 14.546875 -37.375 C 16.566406 -37.375 18.484375 -36.882812 20.296875 -35.90625 C 22.109375 -34.925781 23.285156 -33.78125 23.828125 -32.46875 C 24.710938 -33.664062 25.988281 -34.601562 27.65625 -35.28125 C 29.320312 -35.96875 31.132812 -36.3125 33.09375 -36.3125 C 35.945312 -36.3125 38.390625 -35.628906 40.421875 -34.265625 C 42.441406 -32.835938 43.453125 -30.070312 43.453125 -25.96875 C 43.453125 -23.757812 42.796875 -21.894531 41.484375 -20.375 C 40.179688 -18.863281 38.457031 -17.8125 36.3125 -17.21875 C 35.65625 -17.039062 34.734375 -16.890625 33.546875 -16.765625 C 32.359375 -16.648438 31.40625 -16.441406 30.6875 -16.140625 C 29.976562 -15.847656 29.351562 -15.226562 28.8125 -14.28125 C 28.101562 -12.96875 27.75 -11.507812 27.75 -9.90625 C 27.75 -9.488281 27.765625 -8.890625 27.796875 -8.109375 C 27.828125 -7.335938 27.78125 -6.59375 27.65625 -5.875 C 27.539062 -5.164062 27.332031 -4.488281 27.03125 -3.84375 C 26.320312 -2.226562 25.238281 -1.078125 23.78125 -0.390625 C 22.320312 0.285156 20.191406 0.625 17.390625 0.625 Z M 17.390625 0.625 "/></g></g></g><g fill="#000000" fill-opacity="1"><g transform="translate(151.317723, 227.707999)"><g><path d="M 24.625 1.34375 C 20.582031 1.34375 16.984375 0.65625 13.828125 -0.71875 C 11.984375 -1.488281 10.300781 -2.570312 8.78125 -3.96875 C 7.269531 -5.363281 6.273438 -7.015625 5.796875 -8.921875 C 5.378906 -10.703125 5.171875 -12.191406 5.171875 -13.390625 C 5.171875 -16.054688 5.734375 -18.519531 6.859375 -20.78125 C 7.992188 -23.039062 9.546875 -24.648438 11.515625 -25.609375 C 9.367188 -25.546875 7.65625 -26.15625 6.375 -27.4375 C 5.101562 -28.71875 4.46875 -30.28125 4.46875 -32.125 C 4.46875 -33.1875 4.703125 -34.238281 5.171875 -35.28125 C 5.648438 -36.320312 6.335938 -37.226562 7.234375 -38 C 9.015625 -39.550781 11.40625 -40.625 14.40625 -41.21875 C 17.414062 -41.8125 20.613281 -42.019531 24 -41.84375 C 30.1875 -41.664062 35.332031 -39.613281 39.4375 -35.6875 C 41.632812 -33.539062 43.175781 -31.082031 44.0625 -28.3125 C 44.957031 -25.550781 45.40625 -22.359375 45.40625 -18.734375 C 45.40625 -14.628906 44.75 -11.28125 43.4375 -8.6875 C 42.132812 -6.101562 40.023438 -3.832031 37.109375 -1.875 C 35.679688 -0.863281 33.851562 -0.078125 31.625 0.484375 C 29.394531 1.054688 27.0625 1.34375 24.625 1.34375 Z M 24.984375 -8.390625 C 26.523438 -8.390625 28.023438 -8.9375 29.484375 -10.03125 C 30.941406 -11.132812 31.96875 -12.578125 32.5625 -14.359375 C 32.863281 -15.367188 33.015625 -16.234375 33.015625 -16.953125 C 33.015625 -18.140625 32.703125 -19.148438 32.078125 -19.984375 C 31.453125 -20.816406 30.546875 -21.320312 29.359375 -21.5 C 29.234375 -21.5 28.914062 -21.5 28.40625 -21.5 C 27.90625 -21.5 27.34375 -21.332031 26.71875 -21 C 26.09375 -20.675781 25.570312 -20.128906 25.15625 -19.359375 C 24.863281 -20.078125 24.414062 -20.613281 23.8125 -20.96875 C 23.21875 -21.320312 22.664062 -21.515625 22.15625 -21.546875 C 21.65625 -21.578125 21.316406 -21.59375 21.140625 -21.59375 C 19.773438 -21.414062 18.71875 -20.863281 17.96875 -19.9375 C 17.226562 -19.019531 16.859375 -17.9375 16.859375 -16.6875 C 16.859375 -15.96875 17.007812 -15.222656 17.3125 -14.453125 C 18.144531 -12.609375 19.285156 -11.132812 20.734375 -10.03125 C 22.191406 -8.9375 23.609375 -8.390625 24.984375 -8.390625 Z M 24.984375 -8.390625 "/></g></g></g><g fill="#000000" fill-opacity="1"><g transform="translate(194.580096, 227.707999)"><g><path d="M 15.078125 -29.984375 C 12.929688 -29.984375 10.742188 -30.8125 8.515625 -32.46875 C 6.285156 -34.132812 4.578125 -36.394531 3.390625 -39.25 C 2.910156 -40.5 2.671875 -41.691406 2.671875 -42.828125 C 2.671875 -44.734375 3.222656 -46.367188 4.328125 -47.734375 C 5.429688 -49.097656 7.082031 -49.898438 9.28125 -50.140625 C 9.28125 -50.203125 9.722656 -50.1875 10.609375 -50.09375 C 11.503906 -50.007812 12.394531 -49.726562 13.28125 -49.25 C 14.175781 -48.769531 14.863281 -47.96875 15.34375 -46.84375 C 16 -48.03125 16.800781 -48.859375 17.75 -49.328125 C 18.707031 -49.804688 19.613281 -50.078125 20.46875 -50.140625 C 21.332031 -50.203125 21.765625 -50.203125 21.765625 -50.140625 C 23.609375 -49.835938 24.988281 -49.03125 25.90625 -47.71875 C 26.832031 -46.414062 27.296875 -44.84375 27.296875 -43 C 27.296875 -41.632812 27.085938 -40.328125 26.671875 -39.078125 C 25.785156 -36.335938 24.210938 -34.132812 21.953125 -32.46875 C 19.691406 -30.8125 17.398438 -29.984375 15.078125 -29.984375 Z M 16.765625 0 C 13.441406 0 11.125 -1.1875 9.8125 -3.5625 C 9.101562 -4.757812 8.550781 -6.632812 8.15625 -9.1875 C 7.769531 -11.75 7.578125 -14.367188 7.578125 -17.046875 C 7.578125 -21.265625 7.992188 -24.175781 8.828125 -25.78125 C 9.960938 -27.976562 11.988281 -29.078125 14.90625 -29.078125 C 16.6875 -29.078125 18.210938 -28.734375 19.484375 -28.046875 C 20.765625 -27.367188 21.734375 -26.492188 22.390625 -25.421875 C 23.640625 -23.347656 24.265625 -19.570312 24.265625 -14.09375 C 24.265625 -11.957031 24.160156 -9.921875 23.953125 -7.984375 C 23.742188 -6.046875 23.492188 -4.601562 23.203125 -3.65625 C 22.484375 -1.21875 20.335938 0 16.765625 0 Z M 16.765625 0 "/></g></g></g><g fill="#000000" fill-opacity="1"><g transform="translate(217.950177, 227.707999)"><g><path d="M 13.03125 0.53125 C 11.363281 0.53125 9.578125 -0.03125 7.671875 -1.15625 C 5.472656 -2.582031 4.375 -4.546875 4.375 -7.046875 C 4.375 -8.710938 4.863281 -10.484375 5.84375 -12.359375 C 6.820312 -14.234375 8.207031 -16.09375 10 -17.9375 C 8.75 -19.0625 7.71875 -20.171875 6.90625 -21.265625 C 6.101562 -22.367188 5.507812 -23.289062 5.125 -24.03125 C 4.738281 -24.78125 4.519531 -25.242188 4.46875 -25.421875 C 3.863281 -26.847656 3.5625 -28.304688 3.5625 -29.796875 C 3.5625 -31.222656 3.875 -32.515625 4.5 -33.671875 C 5.125 -34.835938 6.0625 -35.804688 7.3125 -36.578125 C 8.914062 -37.585938 10.492188 -38.09375 12.046875 -38.09375 C 13.828125 -38.09375 15.59375 -37.394531 17.34375 -36 C 19.101562 -34.601562 21.265625 -32.414062 23.828125 -29.4375 C 25.609375 -32.0625 27.460938 -34.085938 29.390625 -35.515625 C 31.328125 -36.941406 33.21875 -37.65625 35.0625 -37.65625 C 36.425781 -37.65625 37.796875 -37.207031 39.171875 -36.3125 C 41.429688 -34.820312 42.5625 -32.828125 42.5625 -30.328125 C 42.5625 -28.609375 41.992188 -26.796875 40.859375 -24.890625 C 40.859375 -24.773438 40.320312 -24.015625 39.25 -22.609375 C 38.1875 -21.210938 36.734375 -19.679688 34.890625 -18.015625 C 39.703125 -13.734375 42.109375 -10.019531 42.109375 -6.875 C 42.109375 -4.90625 41.15625 -3.148438 39.25 -1.609375 C 37.644531 -0.234375 35.773438 0.453125 33.640625 0.453125 C 32.328125 0.453125 31.101562 0.195312 29.96875 -0.3125 C 28.84375 -0.820312 27.863281 -1.519531 27.03125 -2.40625 L 23.28125 -6.78125 C 23.101562 -6.476562 22.671875 -5.863281 21.984375 -4.9375 C 21.304688 -4.019531 20.550781 -3.144531 19.71875 -2.3125 C 17.632812 -0.414062 15.40625 0.53125 13.03125 0.53125 Z M 13.03125 0.53125 "/></g></g></g><g fill="#000000" fill-opacity="1"><g transform="translate(136.566662, 251.458474)"><g><path d="M 2.265625 -7.015625 L 2.9375 -7.015625 C 2.164062 -5.835938 1.78125 -4.546875 1.78125 -3.140625 C 1.78125 -1.742188 2.164062 -0.457031 2.9375 0.71875 L 2.265625 0.71875 C 1.410156 -0.300781 0.984375 -1.585938 0.984375 -3.140625 C 0.984375 -4.703125 1.410156 -5.992188 2.265625 -7.015625 Z M 2.265625 -7.015625 "/></g></g></g><g fill="#000000" fill-opacity="1"><g transform="translate(139.833686, 251.458474)"><g><path d="M 3.46875 -6.34375 C 4.28125 -6.34375 4.910156 -6.144531 5.359375 -5.75 C 5.816406 -5.351562 6.078125 -4.832031 6.140625 -4.1875 L 6.15625 -4.109375 L 4.90625 -4.109375 L 4.890625 -4.1875 C 4.734375 -5 4.253906 -5.40625 3.453125 -5.40625 C 2.941406 -5.40625 2.53125 -5.203125 2.21875 -4.796875 C 1.914062 -4.390625 1.765625 -3.835938 1.765625 -3.140625 C 1.765625 -2.390625 1.914062 -1.8125 2.21875 -1.40625 C 2.53125 -1 2.929688 -0.796875 3.421875 -0.796875 C 3.816406 -0.796875 4.132812 -0.90625 4.375 -1.125 C 4.625 -1.351562 4.789062 -1.664062 4.875 -2.0625 L 4.890625 -2.15625 L 6.125 -2.15625 L 6.109375 -2.0625 C 6.046875 -1.382812 5.769531 -0.847656 5.28125 -0.453125 C 4.789062 -0.0664062 4.15625 0.125 3.375 0.125 C 2.5 0.125 1.789062 -0.160156 1.25 -0.734375 C 0.71875 -1.316406 0.453125 -2.09375 0.453125 -3.0625 C 0.453125 -4.0625 0.734375 -4.859375 1.296875 -5.453125 C 1.867188 -6.046875 2.59375 -6.34375 3.46875 -6.34375 Z M 3.46875 -6.34375 "/></g></g></g><g fill="#000000" fill-opacity="1"><g transform="translate(146.29573, 251.458474)"><g><path d="M 3.578125 -2.40625 L 3.578125 0 L 2.34375 0 L 2.34375 -2.40625 L 0.140625 -6.203125 L 1.546875 -6.203125 L 3 -3.5 L 4.40625 -6.203125 L 5.765625 -6.203125 Z M 3.578125 -2.40625 "/></g></g></g><g fill="#000000" fill-opacity="1"><g transform="translate(151.92977, 251.458474)"><g><path d="M 4.421875 -3.34375 C 5.222656 -3.144531 5.625 -2.648438 5.625 -1.859375 C 5.625 -1.316406 5.457031 -0.894531 5.125 -0.59375 C 4.789062 -0.289062 4.390625 -0.101562 3.921875 -0.03125 C 3.710938 -0.0078125 3.425781 0 3.0625 0 L 0.796875 0 L 0.796875 -6.203125 L 3.03125 -6.203125 C 3.351562 -6.203125 3.617188 -6.191406 3.828125 -6.171875 C 4.328125 -6.109375 4.710938 -5.9375 4.984375 -5.65625 C 5.253906 -5.382812 5.390625 -5.039062 5.390625 -4.625 C 5.390625 -4 5.066406 -3.570312 4.421875 -3.34375 Z M 2.046875 -5.234375 L 2.046875 -3.65625 L 2.984375 -3.65625 C 3.128906 -3.65625 3.273438 -3.664062 3.421875 -3.6875 C 3.867188 -3.757812 4.09375 -4.019531 4.09375 -4.46875 C 4.09375 -4.90625 3.859375 -5.15625 3.390625 -5.21875 C 3.242188 -5.226562 3.09375 -5.234375 2.9375 -5.234375 Z M 3.53125 -0.984375 C 3.757812 -1.003906 3.945312 -1.085938 4.09375 -1.234375 C 4.238281 -1.390625 4.3125 -1.59375 4.3125 -1.84375 C 4.3125 -2.363281 4.046875 -2.648438 3.515625 -2.703125 C 3.367188 -2.722656 3.222656 -2.734375 3.078125 -2.734375 L 2.046875 -2.734375 L 2.046875 -0.984375 L 3.125 -0.984375 C 3.320312 -0.984375 3.457031 -0.984375 3.53125 -0.984375 Z M 3.53125 -0.984375 "/></g></g></g><g fill="#000000" fill-opacity="1"><g transform="translate(157.842806, 251.458474)"><g><path d="M 5.28125 -0.984375 L 5.28125 0 L 0.796875 0 L 0.796875 -6.203125 L 5.1875 -6.203125 L 5.1875 -5.234375 L 2.046875 -5.234375 L 2.046875 -3.59375 L 4.96875 -3.59375 L 4.96875 -2.625 L 2.046875 -2.625 L 2.046875 -0.984375 Z M 5.28125 -0.984375 "/></g></g></g><g fill="#000000" fill-opacity="1"><g transform="translate(163.38685, 251.458474)"><g><path d="M 5.296875 -1.5625 C 5.378906 -0.820312 5.53125 -0.300781 5.75 0 L 4.390625 0 C 4.242188 -0.414062 4.144531 -0.878906 4.09375 -1.390625 C 4 -2.085938 3.71875 -2.457031 3.25 -2.5 C 3.132812 -2.5 2.972656 -2.5 2.765625 -2.5 L 2.046875 -2.5 L 2.046875 0 L 0.796875 0 L 0.796875 -6.203125 L 3.0625 -6.203125 C 3.40625 -6.203125 3.707031 -6.191406 3.96875 -6.171875 C 4.457031 -6.109375 4.847656 -5.941406 5.140625 -5.671875 C 5.441406 -5.410156 5.59375 -5.023438 5.59375 -4.515625 C 5.59375 -4.128906 5.484375 -3.804688 5.265625 -3.546875 C 5.054688 -3.296875 4.765625 -3.113281 4.390625 -3 C 4.921875 -2.800781 5.222656 -2.320312 5.296875 -1.5625 Z M 2.046875 -3.421875 L 2.890625 -3.421875 C 3.140625 -3.421875 3.3125 -3.425781 3.40625 -3.4375 C 4 -3.488281 4.296875 -3.785156 4.296875 -4.328125 C 4.296875 -4.609375 4.222656 -4.816406 4.078125 -4.953125 C 3.941406 -5.085938 3.738281 -5.175781 3.46875 -5.21875 C 3.332031 -5.226562 3.160156 -5.234375 2.953125 -5.234375 L 2.046875 -5.234375 Z M 2.046875 -3.421875 "/></g></g></g><g fill="#000000" fill-opacity="1"><g transform="translate(169.272889, 251.458474)"><g><path d="M 0.734375 0.265625 L -0.046875 0.265625 L 2.21875 -6.484375 L 2.984375 -6.484375 Z M 0.734375 0.265625 "/></g></g></g><g fill="#000000" fill-opacity="1"><g transform="translate(172.215909, 251.458474)"><g><path d="M 4.171875 -1.875 L 2.078125 -1.875 L 1.453125 0 L 0.140625 0 L 2.375 -6.203125 L 3.9375 -6.203125 L 6.125 0 L 4.78125 0 Z M 3.125 -5.140625 L 2.390625 -2.859375 L 3.859375 -2.859375 Z M 3.125 -5.140625 "/></g></g></g><g fill="#000000" fill-opacity="1"><g transform="translate(178.299954, 251.458474)"><g><path d="M 2.046875 0 L 0.796875 0 L 0.796875 -6.203125 L 2.046875 -6.203125 Z M 2.046875 0 "/></g></g></g><g fill="#000000" fill-opacity="1"><g transform="translate(180.927975, 251.458474)"><g/></g></g><g fill="#000000" fill-opacity="1"><g transform="translate(182.673989, 251.458474)"><g><path d="M 3.46875 -6.34375 C 4.28125 -6.34375 4.910156 -6.144531 5.359375 -5.75 C 5.816406 -5.351562 6.078125 -4.832031 6.140625 -4.1875 L 6.15625 -4.109375 L 4.90625 -4.109375 L 4.890625 -4.1875 C 4.734375 -5 4.253906 -5.40625 3.453125 -5.40625 C 2.941406 -5.40625 2.53125 -5.203125 2.21875 -4.796875 C 1.914062 -4.390625 1.765625 -3.835938 1.765625 -3.140625 C 1.765625 -2.390625 1.914062 -1.8125 2.21875 -1.40625 C 2.53125 -1 2.929688 -0.796875 3.421875 -0.796875 C 3.816406 -0.796875 4.132812 -0.90625 4.375 -1.125 C 4.625 -1.351562 4.789062 -1.664062 4.875 -2.0625 L 4.890625 -2.15625 L 6.125 -2.15625 L 6.109375 -2.0625 C 6.046875 -1.382812 5.769531 -0.847656 5.28125 -0.453125 C 4.789062 -0.0664062 4.15625 0.125 3.375 0.125 C 2.5 0.125 1.789062 -0.160156 1.25 -0.734375 C 0.71875 -1.316406 0.453125 -2.09375 0.453125 -3.0625 C 0.453125 -4.0625 0.734375 -4.859375 1.296875 -5.453125 C 1.867188 -6.046875 2.59375 -6.34375 3.46875 -6.34375 Z M 3.46875 -6.34375 "/></g></g></g><g fill="#000000" fill-opacity="1"><g transform="translate(189.136032, 251.458474)"><g><path d="M 3.53125 -6.34375 C 4.476562 -6.34375 5.222656 -6.046875 5.765625 -5.453125 C 6.316406 -4.867188 6.59375 -4.085938 6.59375 -3.109375 C 6.59375 -2.128906 6.316406 -1.34375 5.765625 -0.75 C 5.222656 -0.164062 4.476562 0.125 3.53125 0.125 C 2.582031 0.125 1.832031 -0.164062 1.28125 -0.75 C 0.726562 -1.34375 0.453125 -2.128906 0.453125 -3.109375 C 0.453125 -4.085938 0.722656 -4.867188 1.265625 -5.453125 C 1.816406 -6.046875 2.570312 -6.34375 3.53125 -6.34375 Z M 2.21875 -1.40625 C 2.539062 -1 2.976562 -0.796875 3.53125 -0.796875 C 4.082031 -0.796875 4.515625 -1 4.828125 -1.40625 C 5.140625 -1.820312 5.296875 -2.390625 5.296875 -3.109375 C 5.296875 -3.828125 5.140625 -4.390625 4.828125 -4.796875 C 4.515625 -5.203125 4.082031 -5.40625 3.53125 -5.40625 C 2.96875 -5.40625 2.53125 -5.203125 2.21875 -4.796875 C 1.90625 -4.390625 1.75 -3.820312 1.75 -3.09375 C 1.75 -2.375 1.90625 -1.8125 2.21875 -1.40625 Z M 2.21875 -1.40625 "/></g></g></g><g fill="#000000" fill-opacity="1"><g transform="translate(196.021083, 251.458474)"><g><path d="M 6.25 0 L 4.546875 0 L 2 -4.71875 C 2.03125 -4.15625 2.046875 -3.519531 2.046875 -2.8125 L 2.046875 0 L 0.796875 0 L 0.796875 -6.203125 L 2.453125 -6.203125 L 5.0625 -1.40625 C 5.03125 -1.957031 5.015625 -2.609375 5.015625 -3.359375 L 5.015625 -6.203125 L 6.25 -6.203125 Z M 6.25 0 "/></g></g></g><g fill="#000000" fill-opacity="1"><g transform="translate(202.861136, 251.458474)"><g><path d="M 2.859375 -6.34375 C 3.566406 -6.34375 4.109375 -6.164062 4.484375 -5.8125 C 4.859375 -5.457031 5.082031 -4.984375 5.15625 -4.390625 L 3.890625 -4.390625 C 3.847656 -4.710938 3.738281 -4.960938 3.5625 -5.140625 C 3.382812 -5.316406 3.132812 -5.40625 2.8125 -5.40625 C 2.5625 -5.40625 2.351562 -5.34375 2.1875 -5.21875 C 2.019531 -5.09375 1.9375 -4.910156 1.9375 -4.671875 C 1.9375 -4.410156 2.035156 -4.203125 2.234375 -4.046875 C 2.429688 -3.898438 2.773438 -3.769531 3.265625 -3.65625 C 3.941406 -3.5 4.441406 -3.257812 4.765625 -2.9375 C 5.085938 -2.625 5.25 -2.210938 5.25 -1.703125 C 5.25 -1.140625 5.023438 -0.691406 4.578125 -0.359375 C 4.140625 -0.0351562 3.597656 0.125 2.953125 0.125 C 2.191406 0.125 1.585938 -0.0390625 1.140625 -0.375 C 0.691406 -0.707031 0.4375 -1.195312 0.375 -1.84375 L 1.640625 -1.84375 C 1.710938 -1.507812 1.863281 -1.25 2.09375 -1.0625 C 2.332031 -0.882812 2.613281 -0.796875 2.9375 -0.796875 C 3.21875 -0.796875 3.457031 -0.867188 3.65625 -1.015625 C 3.851562 -1.160156 3.953125 -1.347656 3.953125 -1.578125 C 3.953125 -1.847656 3.859375 -2.0625 3.671875 -2.21875 C 3.484375 -2.382812 3.160156 -2.519531 2.703125 -2.625 C 2.015625 -2.789062 1.5 -3.015625 1.15625 -3.296875 C 0.8125 -3.578125 0.640625 -3.984375 0.640625 -4.515625 C 0.640625 -5.066406 0.851562 -5.507812 1.28125 -5.84375 C 1.71875 -6.175781 2.242188 -6.34375 2.859375 -6.34375 Z M 2.859375 -6.34375 "/></g></g></g><g fill="#000000" fill-opacity="1"><g transform="translate(208.333174, 251.458474)"><g><path d="M 5.84375 -6.203125 L 5.84375 -2.53125 C 5.84375 -2.238281 5.835938 -1.992188 5.828125 -1.796875 C 5.785156 -1.234375 5.554688 -0.769531 5.140625 -0.40625 C 4.722656 -0.0507812 4.101562 0.125 3.28125 0.125 C 2.457031 0.125 1.835938 -0.0507812 1.421875 -0.40625 C 1.003906 -0.769531 0.773438 -1.234375 0.734375 -1.796875 C 0.722656 -1.992188 0.71875 -2.238281 0.71875 -2.53125 L 0.71875 -6.203125 L 1.953125 -6.203125 L 1.953125 -2.40625 C 1.953125 -2.195312 1.957031 -2.046875 1.96875 -1.953125 C 2 -1.585938 2.125 -1.300781 2.34375 -1.09375 C 2.5625 -0.894531 2.875 -0.796875 3.28125 -0.796875 C 3.6875 -0.796875 4 -0.894531 4.21875 -1.09375 C 4.4375 -1.300781 4.5625 -1.585938 4.59375 -1.953125 C 4.601562 -2.046875 4.609375 -2.195312 4.609375 -2.40625 L 4.609375 -6.203125 Z M 5.84375 -6.203125 "/></g></g></g><g fill="#000000" fill-opacity="1"><g transform="translate(214.651217, 251.458474)"><g><path d="M 5.28125 -1.03125 L 5.28125 0 L 0.796875 0 L 0.796875 -6.203125 L 2.046875 -6.203125 L 2.046875 -1.03125 Z M 5.28125 -1.03125 "/></g></g></g><g fill="#000000" fill-opacity="1"><g transform="translate(220.087251, 251.458474)"><g><path d="M 5.65625 -5.234375 L 3.5625 -5.234375 L 3.5625 0 L 2.3125 0 L 2.3125 -5.234375 L 0.203125 -5.234375 L 0.203125 -6.203125 L 5.65625 -6.203125 Z M 5.65625 -5.234375 "/></g></g></g><g fill="#000000" fill-opacity="1"><g transform="translate(225.694295, 251.458474)"><g><path d="M 4.171875 -1.875 L 2.078125 -1.875 L 1.453125 0 L 0.140625 0 L 2.375 -6.203125 L 3.9375 -6.203125 L 6.125 0 L 4.78125 0 Z M 3.125 -5.140625 L 2.390625 -2.859375 L 3.859375 -2.859375 Z M 3.125 -5.140625 "/></g></g></g><g fill="#000000" fill-opacity="1"><g transform="translate(231.77834, 251.458474)"><g><path d="M 6.25 0 L 4.546875 0 L 2 -4.71875 C 2.03125 -4.15625 2.046875 -3.519531 2.046875 -2.8125 L 2.046875 0 L 0.796875 0 L 0.796875 -6.203125 L 2.453125 -6.203125 L 5.0625 -1.40625 C 5.03125 -1.957031 5.015625 -2.609375 5.015625 -3.359375 L 5.015625 -6.203125 L 6.25 -6.203125 Z M 6.25 0 "/></g></g></g><g fill="#000000" fill-opacity="1"><g transform="translate(238.618393, 251.458474)"><g><path d="M 3.46875 -6.34375 C 4.28125 -6.34375 4.910156 -6.144531 5.359375 -5.75 C 5.816406 -5.351562 6.078125 -4.832031 6.140625 -4.1875 L 6.15625 -4.109375 L 4.90625 -4.109375 L 4.890625 -4.1875 C 4.734375 -5 4.253906 -5.40625 3.453125 -5.40625 C 2.941406 -5.40625 2.53125 -5.203125 2.21875 -4.796875 C 1.914062 -4.390625 1.765625 -3.835938 1.765625 -3.140625 C 1.765625 -2.390625 1.914062 -1.8125 2.21875 -1.40625 C 2.53125 -1 2.929688 -0.796875 3.421875 -0.796875 C 3.816406 -0.796875 4.132812 -0.90625 4.375 -1.125 C 4.625 -1.351562 4.789062 -1.664062 4.875 -2.0625 L 4.890625 -2.15625 L 6.125 -2.15625 L 6.109375 -2.0625 C 6.046875 -1.382812 5.769531 -0.847656 5.28125 -0.453125 C 4.789062 -0.0664062 4.15625 0.125 3.375 0.125 C 2.5 0.125 1.789062 -0.160156 1.25 -0.734375 C 0.71875 -1.316406 0.453125 -2.09375 0.453125 -3.0625 C 0.453125 -4.0625 0.734375 -4.859375 1.296875 -5.453125 C 1.867188 -6.046875 2.59375 -6.34375 3.46875 -6.34375 Z M 3.46875 -6.34375 "/></g></g></g><g fill="#000000" fill-opacity="1"><g transform="translate(245.080437, 251.458474)"><g><path d="M 3.578125 -2.40625 L 3.578125 0 L 2.34375 0 L 2.34375 -2.40625 L 0.140625 -6.203125 L 1.546875 -6.203125 L 3 -3.5 L 4.40625 -6.203125 L 5.765625 -6.203125 Z M 3.578125 -2.40625 "/></g></g></g><g fill="#000000" fill-opacity="1"><g transform="translate(250.714477, 251.458474)"><g><path d="M 0.296875 -7.015625 L 0.96875 -7.015625 C 1.8125 -5.992188 2.234375 -4.703125 2.234375 -3.140625 C 2.234375 -1.585938 1.8125 -0.300781 0.96875 0.71875 L 0.296875 0.71875 C 1.066406 -0.457031 1.453125 -1.742188 1.453125 -3.140625 C 1.453125 -4.546875 1.066406 -5.835938 0.296875 -7.015625 Z M 0.296875 -7.015625 "/></g></g></g></svg>